# xmcd
#
# Track frame offsets:
# 150
# 16497
# 36163
# 52640
# 77672
# 91258
# 109127
# 129490
# 143198
# 157143
#
# Disc length: 2548 seconds
#
#
# Revision: 6
# Processed by: cddbd v1.5.2PL0 Copyright (c) Steve Scherf et al.
# Submitted via: FreeRIP 2.951 
#
DISCID=7909f20a
DTITLE=Joss Stone - The Soul Sessions
DYEAR=2003
DGENRE=Soul
TTITLE0=Joss Stone - The Chokin' Kind
TTITLE1=Joss Stone - Super Duper Love
TTITLE2=Joss Stone - Fell In Love With A Boy
TTITLE3=Joss Stone - Victim Of A Foolish Heart
TTITLE4=Joss Stone - Dirty Man
TTITLE5=Joss Stone - Some Kind Of Wonderful
TTITLE6=Joss Stone - I've Fallen In Love With You
TTITLE7=Joss Stone - I Had A Dream
TTITLE8=Joss Stone - All The King's Horses
TTITLE9=Joss Stone - For The Love Of You
EXTD=YEAR: 2003
EXTT0=
EXTT1=(Are you diggin' on me?) Pt.1
EXTT2=
EXTT3=
EXTT4=
EXTT5=
EXTT6=
EXTT7=
EXTT8=
EXTT9=
PLAYORDER=
